<svg xmlns="http://www.w3.org/2000/svg" width="2400" height="1350" viewBox="0 0 2400 1350" role="img" aria-label="Glowing bingo ball with a cryptographic hash">
  <defs>
    <linearGradient id="g0" x1="0" y1="0" x2="1" y2="1">
      <stop offset="0" stop-color="#05070c"/>
      <stop offset="1" stop-color="#0b1020"/>
    </linearGradient>
    <radialGradient id="goldGlow" cx="30%" cy="24%" r="70%">
      <stop offset="0" stop-color="rgba(212,175,55,.26)"/>
      <stop offset="0.55" stop-color="rgba(212,175,55,.08)"/>
      <stop offset="1" stop-color="rgba(212,175,55,0)"/>
    </radialGradient>
    <radialGradient id="blueGlow" cx="80%" cy="18%" r="70%">
      <stop offset="0" stop-color="rgba(255,140,120,.10)"/>
      <stop offset="1" stop-color="rgba(120,180,255,0)"/>
    </radialGradient>
    <filter id="blur" x="-20%" y="-20%" width="140%" height="140%">
      <feGaussianBlur stdDeviation="8"/>
    </filter>
  </defs>

  <rect width="2400" height="1350" fill="url(#g0)"/>
  <rect width="2400" height="1350" fill="url(#goldGlow)"/>
  <rect width="2400" height="1350" fill="url(#blueGlow)"/>

  <g opacity="0.8"><path d="M 1856.5 1413.2 Q 1911.3 1310.5 1803.5 823.3" stroke="rgba(243,210,122,0.073)" stroke-width="1.74" fill="none"/><path d="M -17.3 -79.7 Q -113.4 119.5 61.3 325.6" stroke="rgba(243,210,122,0.067)" stroke-width="1.53" fill="none"/><path d="M 1542.3 -95.6 Q 1051.3 61.9 936.2 317.3" stroke="rgba(243,210,122,0.114)" stroke-width="2.19" fill="none"/><path d="M -48.9 1097.8 Q 1212.2 822.3 1919.3 321.0" stroke="rgba(243,210,122,0.136)" stroke-width="1.16" fill="none"/><path d="M 1830.1 651.1 Q 1336.0 747.4 554.3 940.5" stroke="rgba(243,210,122,0.095)" stroke-width="1.15" fill="none"/><path d="M 583.5 888.0 Q 1427.3 666.6 2170.0 801.6" stroke="rgba(243,210,122,0.126)" stroke-width="2.14" fill="none"/><path d="M 351.9 536.4 Q 845.6 399.2 1706.7 6.1" stroke="rgba(243,210,122,0.064)" stroke-width="2.06" fill="none"/><path d="M 1618.6 803.0 Q 1745.5 803.5 1489.5 406.9" stroke="rgba(243,210,122,0.086)" stroke-width="2.14" fill="none"/><path d="M 2484.4 1208.9 Q 2279.4 1026.8 1870.6 724.3" stroke="rgba(243,210,122,0.115)" stroke-width="1.12" fill="none"/><path d="M 1051.7 389.4 Q 675.2 604.2 -52.6 1090.6" stroke="rgba(243,210,122,0.090)" stroke-width="1.58" fill="none"/><path d="M 2047.0 1206.3 Q 2247.5 1045.3 2505.9 1133.1" stroke="rgba(243,210,122,0.094)" stroke-width="2.15" fill="none"/><path d="M 1173.0 205.5 Q 1294.4 573.8 1393.1 749.3" stroke="rgba(243,210,122,0.122)" stroke-width="1.87" fill="none"/><path d="M 2349.4 127.4 Q 1987.7 594.1 1053.6 842.2" stroke="rgba(243,210,122,0.101)" stroke-width="1.49" fill="none"/><path d="M 528.7 985.2 Q 668.9 347.8 545.4 -30.0" stroke="rgba(243,210,122,0.096)" stroke-width="1.67" fill="none"/></g>
  <g><circle cx="442.2" cy="331.7" r="2.6" fill="rgba(212,175,55,0.099)"/><circle cx="419.2" cy="237.2" r="5.7" fill="rgba(212,175,55,0.077)"/><circle cx="2354.2" cy="1071.3" r="3.2" fill="rgba(212,175,55,0.135)"/><circle cx="2329.2" cy="1019.2" r="2.4" fill="rgba(212,175,55,0.110)"/><circle cx="964.0" cy="243.9" r="2.7" fill="rgba(212,175,55,0.067)"/><circle cx="1098.2" cy="945.3" r="5.6" fill="rgba(212,175,55,0.075)"/><circle cx="802.4" cy="167.7" r="5.5" fill="rgba(212,175,55,0.128)"/><circle cx="815.4" cy="984.6" r="2.1" fill="rgba(212,175,55,0.076)"/><circle cx="1811.2" cy="1343.1" r="2.9" fill="rgba(212,175,55,0.088)"/><circle cx="1669.0" cy="1048.3" r="4.0" fill="rgba(212,175,55,0.124)"/><circle cx="289.1" cy="448.8" r="5.1" fill="rgba(212,175,55,0.125)"/><circle cx="1969.9" cy="878.8" r="2.5" fill="rgba(212,175,55,0.063)"/><circle cx="2118.9" cy="965.1" r="3.3" fill="rgba(212,175,55,0.067)"/><circle cx="339.9" cy="570.3" r="5.3" fill="rgba(212,175,55,0.127)"/><circle cx="133.8" cy="1342.2" r="5.8" fill="rgba(212,175,55,0.063)"/><circle cx="830.4" cy="1278.7" r="3.5" fill="rgba(212,175,55,0.107)"/><circle cx="1299.9" cy="908.8" r="5.8" fill="rgba(212,175,55,0.072)"/><circle cx="970.5" cy="702.0" r="4.2" fill="rgba(212,175,55,0.079)"/><circle cx="930.8" cy="1074.8" r="3.5" fill="rgba(212,175,55,0.109)"/><circle cx="861.2" cy="372.6" r="3.5" fill="rgba(212,175,55,0.054)"/><circle cx="1085.5" cy="619.9" r="4.7" fill="rgba(212,175,55,0.120)"/><circle cx="2173.2" cy="116.6" r="2.5" fill="rgba(212,175,55,0.083)"/><circle cx="638.4" cy="1206.5" r="3.7" fill="rgba(212,175,55,0.089)"/><circle cx="678.4" cy="502.7" r="5.4" fill="rgba(212,175,55,0.122)"/><circle cx="1050.7" cy="83.1" r="2.3" fill="rgba(212,175,55,0.067)"/><circle cx="1382.6" cy="3.2" r="3.6" fill="rgba(212,175,55,0.066)"/><circle cx="1485.1" cy="293.8" r="3.6" fill="rgba(212,175,55,0.060)"/><circle cx="1615.4" cy="878.3" r="2.1" fill="rgba(212,175,55,0.139)"/><circle cx="849.3" cy="648.8" r="2.7" fill="rgba(212,175,55,0.079)"/><circle cx="848.7" cy="151.8" r="5.6" fill="rgba(212,175,55,0.136)"/><circle cx="242.1" cy="620.8" r="5.4" fill="rgba(212,175,55,0.130)"/><circle cx="1695.2" cy="340.5" r="2.9" fill="rgba(212,175,55,0.057)"/><circle cx="627.5" cy="396.2" r="4.4" fill="rgba(212,175,55,0.104)"/><circle cx="343.8" cy="234.1" r="2.1" fill="rgba(212,175,55,0.120)"/><circle cx="551.5" cy="1337.0" r="2.0" fill="rgba(212,175,55,0.092)"/><circle cx="1228.2" cy="50.4" r="4.0" fill="rgba(212,175,55,0.099)"/><circle cx="1677.5" cy="947.4" r="5.8" fill="rgba(212,175,55,0.061)"/><circle cx="1365.2" cy="1264.1" r="4.0" fill="rgba(212,175,55,0.114)"/></g>

  <g filter="url(#blur)" opacity="0.9">
    <circle cx="1752.0" cy="621.0" r="210" fill="rgba(255,255,255,.04)"/>
  </g>

  <g><circle cx="1752.0" cy="621.0" r="160" fill="none" stroke="rgba(212,175,55,0.180)" stroke-width="1.2"/><circle cx="1752.0" cy="621.0" r="215" fill="none" stroke="rgba(212,175,55,0.150)" stroke-width="1.2"/><circle cx="1752.0" cy="621.0" r="270" fill="none" stroke="rgba(212,175,55,0.120)" stroke-width="1.2"/><circle cx="1752.0" cy="621.0" r="325" fill="none" stroke="rgba(212,175,55,0.090)" stroke-width="1.2"/></g>

  <g>
    <rect x="1562.0" y="555.0" width="380" height="132" rx="26" fill="rgba(255,255,255,.05)" stroke="rgba(255,255,255,.10)"/>
    <text x="1752.0" y="613.0" text-anchor="middle" font-family="ui-sans-serif,system-ui" font-size="50" fill="rgba(245,247,255,.92)" letter-spacing="2">W3</text>
    <text x="1752.0" y="655.0" text-anchor="middle" font-family="ui-sans-serif,system-ui" font-size="22" fill="rgba(245,247,255,.60)" letter-spacing="1">w3.bingo</text>
  </g>

  <g opacity="0.9">
    <circle cx="432.0" cy="1053.0" r="280" fill="rgba(212,175,55,.06)"/>
    <circle cx="432.0" cy="1053.0" r="279" fill="none" stroke="rgba(255,255,255,.06)"/>
  </g>
</svg>